<svg version="1.1" xmlns="http://www.w3.org/2000/svg" xmlns:xlink="http://www.w3.org/1999/xlink" width="43.5" height="42.64286" viewBox="0,0,43.5,42.64286"><defs><radialGradient cx="240" cy="180" r="21.75" gradientUnits="userSpaceOnUse" id="color-1"><stop offset="0" stop-color="#e3d256"/><stop offset="1" stop-color="#6a67ad"/></radialGradient><radialGradient cx="232.17849" cy="172.32635" r="9.16667" gradientUnits="userSpaceOnUse" id="color-2"><stop offset="0" stop-color="#ffffff"/><stop offset="1" stop-color="#6a67ad"/></radialGradient><radialGradient cx="232.17849" cy="172.32635" r="3.16667" gradientUnits="userSpaceOnUse" id="color-3"><stop offset="0" stop-color="#000000"/><stop offset="1" stop-color="#6a67ad"/></radialGradient><radialGradient cx="249.76667" cy="172.72825" r="9.16667" gradientUnits="userSpaceOnUse" id="color-4"><stop offset="0" stop-color="#ffffff"/><stop offset="1" stop-color="#6a67ad"/></radialGradient><radialGradient cx="249.76667" cy="172.72825" r="3.16667" gradientUnits="userSpaceOnUse" id="color-5"><stop offset="0" stop-color="#000000"/><stop offset="1" stop-color="#6a67ad"/></radialGradient><radialGradient cx="240" cy="185.73473" r="16.5" gradientUnits="userSpaceOnUse" id="color-6"><stop offset="0" stop-color="#ffffff"/><stop offset="1" stop-color="#6a67ad"/></radialGradient><radialGradient cx="240" cy="185.73473" r="5.7" gradientUnits="userSpaceOnUse" id="color-7"><stop offset="0" stop-color="#000000"/><stop offset="1" stop-color="#6a67ad"/></radialGradient></defs><g transform="translate(-218.25,-158.67857)"><g data-paper-data="{&quot;isPaintingLayer&quot;:true}" fill-rule="nonzero" stroke="none" stroke-width="0" stroke-linecap="butt" stroke-linejoin="miter" stroke-miterlimit="10" stroke-dasharray="" stroke-dashoffset="0" style="mix-blend-mode: normal"><path d="M261.75,180c0,11.7755 -9.73781,21.32143 -21.75,21.32143c-12.01219,0 -21.75,-9.54593 -21.75,-21.32143c0,-11.7755 9.73781,-21.32143 21.75,-21.32143c12.01219,0 21.75,9.54593 21.75,21.32143z" fill="url(#color-1)"/><g><path d="M241.34515,172.32635c0,2.25516 -4.10406,4.08333 -9.16667,4.08333c-5.06261,0 -9.16667,-1.82817 -9.16667,-4.08333c0,-2.25516 4.10406,-4.08333 9.16667,-4.08333c5.06261,0 9.16667,1.82817 9.16667,4.08333z" fill="url(#color-2)"/><path d="M235.34515,172.32635c0,1.51878 -1.41776,2.75 -3.16667,2.75c-1.7489,0 -3.16667,-1.23122 -3.16667,-2.75c0,-1.51878 1.41776,-2.75 3.16667,-2.75c1.7489,0 3.16667,1.23122 3.16667,2.75z" fill="url(#color-3)"/></g><g><path d="M258.93333,172.72825c0,2.25516 -4.10406,4.08333 -9.16667,4.08333c-5.06261,0 -9.16667,-1.82817 -9.16667,-4.08333c0,-2.25516 4.10406,-4.08333 9.16667,-4.08333c5.06261,0 9.16667,1.82817 9.16667,4.08333z" fill="url(#color-4)"/><path d="M252.93333,172.72825c0,1.51878 -1.41776,2.75 -3.16667,2.75c-1.7489,0 -3.16667,-1.23122 -3.16667,-2.75c0,-1.51878 1.41776,-2.75 3.16667,-2.75c1.7489,0 3.16667,1.23122 3.16667,2.75z" fill="url(#color-5)"/></g><g><path d="M256.5,185.73473c0,2.25516 -7.3873,4.08333 -16.5,4.08333c-9.1127,0 -16.5,-1.82817 -16.5,-4.08333c0,-2.25516 7.3873,-4.08333 16.5,-4.08333c9.1127,0 16.5,1.82817 16.5,4.08333z" fill="url(#color-6)"/><path d="M245.7,185.73473c0,1.51878 -2.55198,2.75 -5.7,2.75c-3.14802,0 -5.7,-1.23122 -5.7,-2.75c0,-1.51878 2.55198,-2.75 5.7,-2.75c3.14802,0 5.7,1.23122 5.7,2.75z" fill="url(#color-7)"/></g></g></g></svg>